<svg viewBox="0 0 406 280" xmlns="http://www.w3.org/2000/svg" fill-rule="evenodd" clip-rule="evenodd" stroke-linejoin="round" stroke-miterlimit="2"><clipPath id="a"><path d="M0 .013h405.45V279.94H0z"/></clipPath><g clip-path="url(#a)"><path d="M193.26 12.27v56A12.264 12.264 0 01187 78.9l-95.35 53.65a12.263 12.263 0 00-6.245 10.677c0 4.318 2.283 8.328 5.995 10.533l83.6 49.66a12.264 12.264 0 015.995 10.533c0 4.42-2.392 8.51-6.245 10.677l-95.46 53.7a12.263 12.263 0 01-12.23-.13L6 242.19a12.262 12.262 0 01-6-10.55V110.58A12.264 12.264 0 016.08 100L174.85 1.68a12.25 12.25 0 016.16-1.661c6.72 0 12.25 5.529 12.25 12.25v.001zm18.96 0v56a12.264 12.264 0 006.24 10.68l95.37 53.64a12.263 12.263 0 016.245 10.677c0 4.318-2.283 8.328-5.995 10.533l-83.64 49.66a12.264 12.264 0 00-5.995 10.533c0 4.42 2.392 8.51 6.245 10.677l95.46 53.7a12.263 12.263 0 0012.23-.13l61.07-36a12.262 12.262 0 006-10.55V110.58A12.262 12.262 0 00399.4 100L230.64 1.68a12.25 12.25 0 00-6.17-1.667c-6.72 0-12.25 5.53-12.25 12.25v.007z" fill="#ffb336" fill-rule="nonzero"/></g></svg>